<?xml version="1.0" encoding="UTF-8" standalone="no"?><svg version="1.1" width="1024" height="1024" viewBox="0 0 1024 1024" xml:space="preserve" xmlns:xlink="http://www.w3.org/1999/xlink" xmlns="http://www.w3.org/2000/svg" xmlns:svg="http://www.w3.org/2000/svg"><defs><linearGradient id="b"><stop offset="0" stop-color="#ff5fa9"/><stop offset="1" stop-color="#ff281d"/></linearGradient><linearGradient xlink:href="#a" id="c" gradientUnits="userSpaceOnUse" x1="512" y1="0" x2="512" y2="1024"/><linearGradient id="a"><stop offset="0" stop-color="#313131"/><stop offset="1" stop-color="#141414"/></linearGradient><linearGradient xlink:href="#b" id="d" x1="674.51721" y1="160.13527" x2="674.51721" y2="596.74744" gradientUnits="userSpaceOnUse" gradientTransform="translate(-32.186649 2.9350842) scale(.98167121)"/></defs><path d="M1023.9999 703.6703c0 12.24394 0 24.46578-.0923 36.68749-.0607 10.3073-.1779 20.61447-.4453 30.89954-.2837 22.5344-2.2629 45.01565-5.9213 67.25295-3.8067 22.26183-10.9078 43.8113-21.08088 63.9583-20.61945 40.48081-53.52839 73.39129-94.0071 94.01169-20.13757 10.15963-41.67821 17.25773-63.91054 21.05973-22.26075 3.6732-44.74408 5.6545-67.27194 5.9217-10.29726.2661-20.59722.4218-30.89785.4669-12.2434.0714-24.46445.0714-36.68562.0714H320.3129c-12.22115 0-24.44231 0-36.68569-.0606-10.30054-.0405-20.60048-.1866-30.89786-.4453-22.54148-.2877-45.0292-2.2745-67.27197-5.944-22.23846-3.7846-43.78676-10.9085-63.91051-21.05986-40.474453-20.61649-73.382628-53.51855-94.007081-93.99013-10.169994-20.15946-17.275178-41.72376-21.0808488-63.98053C2.8006217 816.28975.82124261 793.81592.53759651 771.28886c-.26726224-10.3073-.40038136-20.61447-.44543709-30.9217C0 728.12315 0 715.9236 0 703.67966V320.33072c0-12.24407 0-24.48805.09215942-36.73201.04096-10.28505.17817485-20.59224.44543709-30.87719.2836461-22.52708 2.26333229-45.00092 5.92134369-67.23084 3.8065928-22.26176 10.9077838-43.81123 21.0808488-63.98046 20.619436-40.480777 53.52833-73.391427 94.007081-94.011821 20.13183-10.154396 41.66437-17.252253 63.8883-21.0596905C207.69585 2.7877383 230.17916.80650253 252.70702.51712013 263.01382.24985607 273.32052.11673607 283.60489.07168 295.84836 0 308.09175 0 320.29058 0h383.3742c12.24346 0 24.48687 0 36.70798.07168 10.30056.04096 20.60038.18636807 30.89785.44544013 22.52786.289792 45.01119 2.27061817 67.24964 5.92158837 22.26069 3.8068235 43.78692 10.9083665 63.93283 21.0596905 40.48882 20.614147 73.40659 53.525823 94.02934 94.011821 10.16138 20.15325 17.25908 41.71 21.05858 63.95824 3.6587 22.23729 5.638 44.7185 5.9214 67.25306.2674 10.30717.4002 20.61446.4453 30.89941.0923 12.24398.0923 24.46572.0923 36.68746Z" fill="url(#c)"/><path d="M532.06541 160.24c-20.07469 0-37.29414 3.9892-53.08299 11.07445-15.90365 7.13677-29.62145 17.2478-40.66992 28.91602-12.33233 12.86717-21.88968 28.30741-28.87305 46.20312-13.48616 34.72802-13.97192 77.48849-.79062 117.40039 3.93592 11.91765 9.12987 24.12516 15.65234 36.36202 16.71253 31.20657 40.35231 61.70131 70.67149 91.281 15.15958 14.71589 31.47952 29.03002 49.22734 43.09331 17.74781 14.06329 36.9749 27.77508 57.31094 41.08594 5.02855 3.40167 10.17902 6.43353 15.35547 9.0957 5.17645 2.66217 9.07901 3.99219 13.21171 3.99219 3.69746 0 7.93488-1.33002 13.11133-3.99219 5.17645-2.66217 10.32888-5.69403 15.35743-9.0957 20.33604-13.31086 39.52758-27.02265 57.27539-41.08594 17.74782-14.06329 34.20174-28.47747 49.36132-43.19336 30.31918-29.57969 53.93396-60.17429 70.64649-91.38086 6.52247-12.23686 11.71837-24.24446 15.6543-36.16211C857.93016 344.31666 861 324.10438 861 305.38867c0-20.89809-3.15126-40.58972-10.2832-58.95508-6.98337-17.89571-16.54072-33.33595-28.87305-46.20312-11.04847-11.66822-24.76432-21.77925-40.66797-28.91602-15.78885-7.08525-33.21045-11.1289-53.28516-11.1289-23.26801 0-42.45045 6.04346-58.86718 17.43164-6.84888 4.73196-14.99215 11.84693-21.32813 19.04492-7.58672 8.6189-12.5906 16.04631-17.61719 25.33789-5.02659-9.29158-10.02851-16.71899-17.61523-25.33789-6.33598-7.19799-14.68141-14.31296-21.53029-19.04492-16.41673-11.38818-35.59917-17.37719-58.86719-17.37719Z" fill="url(#d)"/></svg>