<svg width="477" height="183" viewBox="0 0 477 183" fill="none" xmlns="http://www.w3.org/2000/svg">
<path d="M150.456 146.8C142.356 146.8 134.806 145.5 127.806 142.9C120.906 140.2 114.906 136.4 109.806 131.5C104.706 126.6 100.706 120.85 97.8059 114.25C95.0059 107.65 93.6059 100.4 93.6059 92.5C93.6059 84.6 95.0059 77.35 97.8059 70.75C100.706 64.15 104.706 58.4 109.806 53.5C115.006 48.6 121.056 44.85 127.956 42.25C134.856 39.55 142.406 38.2 150.606 38.2C159.706 38.2 167.906 39.8 175.206 43C182.606 46.1 188.806 50.7 193.806 56.8L178.206 71.2C174.606 67.1 170.606 64.05 166.206 62.05C161.806 59.95 157.006 58.9 151.806 58.9C146.906 58.9 142.406 59.7 138.306 61.3C134.206 62.9 130.656 65.2 127.656 68.2C124.656 71.2 122.306 74.75 120.606 78.85C119.006 82.95 118.206 87.5 118.206 92.5C118.206 97.5 119.006 102.05 120.606 106.15C122.306 110.25 124.656 113.8 127.656 116.8C130.656 119.8 134.206 122.1 138.306 123.7C142.406 125.3 146.906 126.1 151.806 126.1C157.006 126.1 161.806 125.1 166.206 123.1C170.606 121 174.606 117.85 178.206 113.65L193.806 128.05C188.806 134.15 182.606 138.8 175.206 142C167.906 145.2 159.656 146.8 150.456 146.8ZM242.861 146.2C234.261 146.2 226.611 144.4 219.911 140.8C213.311 137.2 208.061 132.3 204.161 126.1C200.361 119.8 198.461 112.65 198.461 104.65C198.461 96.55 200.361 89.4 204.161 83.2C208.061 76.9 213.311 72 219.911 68.5C226.611 64.9 234.261 63.1 242.861 63.1C251.361 63.1 258.961 64.9 265.661 68.5C272.361 72 277.611 76.85 281.411 83.05C285.211 89.25 287.111 96.45 287.111 104.65C287.111 112.65 285.211 119.8 281.411 126.1C277.611 132.3 272.361 137.2 265.661 140.8C258.961 144.4 251.361 146.2 242.861 146.2ZM242.861 127C246.761 127 250.261 126.1 253.361 124.3C256.461 122.5 258.911 119.95 260.711 116.65C262.511 113.25 263.411 109.25 263.411 104.65C263.411 99.95 262.511 95.95 260.711 92.65C258.911 89.35 256.461 86.8 253.361 85C250.261 83.2 246.761 82.3 242.861 82.3C238.961 82.3 235.461 83.2 232.361 85C229.261 86.8 226.761 89.35 224.861 92.65C223.061 95.95 222.161 99.95 222.161 104.65C222.161 109.25 223.061 113.25 224.861 116.65C226.761 119.95 229.261 122.5 232.361 124.3C235.461 126.1 238.961 127 242.861 127ZM317.525 145V78.1L322.775 83.5H290.225V64.3H368.075V83.5H335.525L340.775 78.1V145H317.525ZM380.549 145V64.3H403.799V112.3L443.099 64.3H464.549V145H441.299V97L402.149 145H380.549Z" fill="white"/>
<path d="M59.7695 144.999C69.2632 144.999 68.2132 134.65 68.2132 134.65C66.3369 121.282 56.1363 112.586 41.845 112.586H27.0315C12.7364 112.586 2.53989 121.282 0.663406 134.65C0.663406 134.65 -0.0299419 144.999 9.10709 144.999C18.2441 144.999 50.2757 144.999 59.7695 144.999Z" fill="white"/>
<path d="M17.8105 89.4266C17.8105 98.6241 25.2877 106.109 34.4758 106.109C43.6639 106.109 51.141 98.6241 51.141 89.4266C51.141 80.229 43.6639 72.7441 34.4758 72.7441C25.2877 72.7441 17.8105 80.229 17.8105 89.4266Z" fill="white"/>
</svg>
